<?xml version="1.0" encoding="UTF-8"?>
<!DOCTYPE svg PUBLIC "-//W3C//DTD SVG 1.1//EN" "http://www.w3.org/Graphics/SVG/1.1/DTD/svg11.dtd">
<!-- Creator: CorelDRAW 2021.5 -->
<svg xmlns="http://www.w3.org/2000/svg" xml:space="preserve" width="250mm" height="200mm" version="1.1" style="shape-rendering:geometricPrecision; text-rendering:geometricPrecision; image-rendering:optimizeQuality; fill-rule:evenodd; clip-rule:evenodd"
viewBox="0 0 25000 20000"
 xmlns:xlink="http://www.w3.org/1999/xlink"
 xmlns:xodm="http://www.corel.com/coreldraw/odm/2003">
 <defs>
  <style type="text/css">
   <![CDATA[
    .str0 {stroke:#E31E24;stroke-width:20;stroke-miterlimit:22.9256}
    .fil0 {fill:#E31E24}
    .fil2 {fill:#010101}
    .fil3 {fill:white}
    .fil1 {fill:#FEFEFE;fill-rule:nonzero}
   ]]>
  </style>
 </defs>
 <g id="Слой_x0020_1">
  <metadata id="CorelCorpID_0Corel-Layer"/>
  <circle class="fil0" cx="12503.32" cy="9777.97" r="7289.38"/>
  <g id="_1688354191472">
   <path class="fil1 str0" d="M17211.11 6138.25c-8.32,-29.47 -31.22,-65.39 -68.69,-107.75 -37.47,-42.37 -85.35,-83.8 -143.64,-124.32 -45.79,81.04 -96.79,179.58 -153,295.62 -56.2,116.03 -112.41,238.51 -168.61,367.44 -56.21,128.94 -111.37,259.71 -165.49,392.33 -54.13,132.61 -100.97,256.93 -140.52,372.97 -39.55,116.04 -67.65,217.35 -84.3,303.91 -16.66,86.57 -16.66,150.11 0,190.63 -29.15,0 -63.49,-10.13 -103.05,-30.39 -39.55,-20.26 -78.06,-45.13 -115.53,-74.6 -37.47,-29.47 -68.7,-62.62 -93.68,-99.46 -24.97,-36.83 -37.46,-71.83 -37.46,-104.98 0,-25.22 6.05,-59.73 18.15,-103.51 -31.77,36.62 -63.85,72.04 -96.22,106.28 -85.35,90.25 -167.57,163.92 -246.67,221.02 -79.12,57.1 -145.72,85.64 -199.85,85.64 -87.43,0 -171.73,-18.42 -252.92,-55.26 -81.19,-36.83 -153,-81.95 -215.45,-135.37 -62.46,-53.41 -111.37,-110.51 -146.76,-171.29 -24.76,-42.53 -40.85,-81.89 -48.29,-118.11 -70.89,116.6 -139.1,215.83 -204.63,297.69 -45.79,55.25 -107.2,99.46 -184.23,132.61 -77.02,33.15 -130.1,49.73 -159.25,49.73 -66.61,-22.1 -130.1,-58.94 -190.47,-110.51 -60.37,-51.57 -116.57,-113.27 -168.61,-185.1 -52.05,-71.84 -98.89,-150.12 -140.51,-234.84 -41.64,-84.73 -77.03,-171.3 -106.17,-259.71 -58.29,176.82 -103.05,333.38 -134.27,469.68 -31.22,136.29 -46.84,241.28 -46.84,314.95 -16.65,0 -45.79,-13.8 -87.43,-41.43 -41.63,-27.63 -83.26,-62.63 -124.9,-104.99 -41.63,-42.36 -78.06,-87.49 -109.28,-135.38 -31.23,-47.89 -44.76,-90.25 -40.6,-127.09 11.39,-82.62 28.07,-172.13 50.05,-268.52 -19,26.64 -38.81,53.53 -59.42,80.65 -81.18,106.83 -164.44,205.37 -249.8,295.63 -85.35,90.25 -167.57,163.92 -246.67,221.02 -79.11,57.1 -145.72,85.64 -199.84,85.64 -87.43,0 -171.74,-18.42 -252.92,-55.26 -81.2,-36.83 -153.01,-81.95 -215.46,-135.37 -62.45,-53.41 -111.37,-110.51 -146.76,-171.29 -35.39,-60.78 -53.08,-115.12 -53.08,-163.01 0,-6.06 0.04,-12.14 0.12,-18.24 -38.22,64.28 -76.77,125.62 -115.66,184.01 -68.69,103.14 -135.3,188.79 -199.84,256.94 -64.52,68.15 -115.53,102.22 -153,102.22 -33.31,0 -71.82,-14.73 -115.53,-44.2 -43.72,-29.47 -85.35,-64.47 -124.9,-104.99 -39.55,-40.52 -72.86,-82.88 -99.92,-127.09 -27.06,-44.2 -40.6,-81.04 -40.6,-110.51 3.61,-82.77 15.75,-177.93 36.46,-285.46 -68.54,110.95 -137.93,213.47 -208.2,307.56 -77.02,103.15 -148.84,189.71 -215.45,259.7 -66.61,69.99 -116.57,104.99 -149.88,104.99 -16.65,0 -45.79,-13.81 -87.43,-41.44 -41.63,-27.62 -83.26,-63.55 -124.9,-107.75 -41.63,-44.2 -78.06,-90.25 -109.28,-138.14 -31.23,-47.89 -44.76,-90.25 -40.6,-127.09 16.65,-132.61 46.84,-282.73 90.55,-450.34 43.72,-167.6 94.72,-338.9 153,-513.87 24.99,-75.01 50.74,-149.85 77.26,-224.53 -104.6,58.91 -217.78,108.89 -339.54,149.93 -45.8,73.67 -93.68,139.06 -143.64,196.16 -49.96,57.1 -95.76,85.64 -137.39,85.64 -37.47,-14.73 -65.58,-46.04 -84.31,-93.93 -18.73,-47.89 -32.27,-99.46 -40.59,-154.72 -8.33,-55.25 -9.37,-105.9 -3.12,-151.95 6.24,-46.04 15.61,-74.6 28.1,-85.65 41.64,0 97.84,-5.52 168.62,-16.57 16.64,-58.94 23.93,-111.44 21.85,-157.49 -2.08,-46.04 -7.29,-80.11 -15.61,-102.22 -33.31,0 -69.73,11.06 -109.29,33.16 -39.55,22.1 -79.1,50.65 -118.65,85.64 -39.56,35 -73.9,76.44 -103.05,124.33 -29.14,47.89 -47.87,97.62 -56.2,149.19 -12.49,69.99 1.04,146.43 40.59,229.31 39.56,82.89 85.35,165.77 137.39,248.65 52.04,82.89 99.92,164.86 143.64,245.9 43.71,81.04 63.49,152.87 59.33,215.49 -4.17,44.21 -23.95,100.38 -59.33,168.53 -35.39,68.16 -83.27,134.46 -143.64,198.93 -60.37,64.46 -133.23,119.72 -218.57,165.77 -85.35,46.04 -180.07,69.06 -284.15,69.06 -79.1,0 -150.92,-35.91 -215.46,-107.74 -64.52,-71.84 -117.61,-156.56 -159.24,-254.18 -41.63,-97.62 -69.74,-197.09 -84.31,-298.39 -14.57,-101.3 -11.45,-179.58 9.37,-234.83 41.63,103.14 96.79,191.55 165.49,265.23 68.69,73.67 137.39,132.61 206.09,176.81 68.69,44.21 131.14,72.76 187.34,85.65 56.21,12.9 94.72,10.13 115.54,-8.29 33.31,-33.15 31.23,-90.25 -6.25,-171.29 -37.47,-81.04 -85.34,-175.9 -143.63,-284.57 -58.28,-108.67 -113.45,-224.71 -165.5,-348.11 -52.03,-123.41 -75.98,-242.21 -71.81,-356.41 4.16,-121.56 32.26,-227.46 84.31,-317.72 52.04,-90.25 111.37,-165.77 177.98,-226.55 66.61,-60.78 134.26,-106.83 202.96,-138.14 68.7,-31.31 123.86,-46.96 165.5,-46.96 41.62,0 97.83,15.65 168.61,46.96 70.78,31.31 140.51,69.08 209.21,113.28 68.69,44.21 126.98,89.33 174.85,135.37 47.89,46.05 71.82,83.81 71.82,113.28 0,22.1 -10.41,60.78 -31.22,116.04 70.78,-14.74 140.52,-30.39 209.21,-46.97 20.23,-4.88 40.01,-9.76 59.34,-14.64 12.33,-32.91 24.82,-65.79 37.46,-98.63 66.61,-173.14 131.14,-333.38 193.59,-480.73 -99.92,0 -179.02,0 -237.31,0 -58.28,0 -106.16,0 -143.64,0 -37.46,0 -68.69,-0.92 -93.67,-2.76 -24.98,-1.85 -52.04,-4.61 -81.18,-8.29 -95.76,-7.37 -169.66,-33.16 -221.7,-77.36 -52.04,-44.21 -69.74,-75.52 -53.09,-93.94 83.28,-3.68 191.52,-10.13 324.74,-19.33 133.23,-9.21 335.15,-17.51 605.77,-24.87 62.45,-143.67 118.66,-258.78 168.62,-345.35 49.96,-86.57 85.35,-129.85 106.16,-129.85 33.31,0 72.86,6.44 118.66,19.34 45.79,12.89 90.55,29.47 134.27,49.73 43.71,20.26 83.26,40.52 118.65,60.78 35.38,20.26 57.25,37.76 65.58,52.49 -20.82,18.42 -46.84,50.66 -78.07,96.7 -31.23,46.05 -65.57,105.9 -103.04,179.58 228.98,-3.68 430.9,-4.6 605.76,-2.76 174.86,1.84 287.27,11.97 337.23,30.39 20.82,7.36 40.6,23.94 59.33,49.73 18.74,25.78 34.35,53.41 46.84,82.88 12.49,29.47 21.85,58.02 28.1,85.65 6.25,27.63 7.29,46.97 3.13,58.02 -41.64,-11.05 -102.01,-21.18 -181.11,-30.39 -79.1,-9.21 -171.74,-15.65 -277.91,-19.34 -106.16,-3.68 -222.73,-7.37 -349.72,-11.05 -126.98,-3.68 -255,-5.53 -384.06,-5.53 -58.29,132.62 -119.7,279.97 -184.23,442.05 -64.53,162.09 -128.02,326.94 -190.47,494.55 -62.45,167.6 -120.74,334.29 -174.86,500.06 -54.12,165.77 -99.92,316.8 -137.4,453.1 70.79,-66.31 145.72,-144.59 224.82,-234.84 79.11,-90.25 154.05,-179.58 224.82,-267.99 66.8,-83.43 126.16,-161.93 178.12,-235.51 32.08,-100.65 66.38,-200.81 102.92,-300.48 49.95,-136.29 98.87,-256.94 146.75,-361.92 47.89,-104.99 90.56,-190.63 128.02,-256.94 37.48,-66.31 66.62,-99.46 87.44,-99.46 37.46,0 79.1,6.44 124.89,19.34 45.8,12.89 89.52,27.62 131.15,44.2 41.64,16.58 78.06,35.92 109.29,58.02 31.23,22.11 53.08,40.52 65.57,55.26 -29.14,40.52 -70.78,110.51 -124.9,209.97 -54.13,99.46 -112.41,221.95 -174.86,367.46 -62.45,145.5 -123.86,307.58 -184.22,486.24 -60.38,178.66 -111.38,365.62 -153.01,560.85 66.62,-69.99 137.39,-151.95 212.33,-245.89 74.94,-93.93 144.68,-186.94 209.21,-279.03 26.01,-37.13 50.84,-73.36 74.49,-108.69 57.83,-199.11 129.81,-384.83 215.9,-557.15 87.43,-174.98 184.23,-321.41 290.4,-439.29 106.16,-117.87 207.13,-176.81 302.88,-176.81 16.66,0 55.17,14.73 115.53,44.2 60.37,29.47 123.87,67.22 190.48,113.27 66.6,46.05 126.98,96.7 181.1,151.96 54.12,55.25 83.27,106.82 87.43,154.71 12.49,99.46 -6.24,193.4 -56.21,281.81 -49.95,88.41 -111.36,163.92 -184.22,226.54 -72.86,62.63 -145.71,106.83 -218.58,132.62 -72.85,25.79 -125.94,27.63 -159.25,5.53 41.64,-58.94 81.19,-128.01 118.66,-207.21 37.47,-79.2 68.69,-156.56 93.67,-232.07 24.99,-75.52 42.68,-145.51 53.09,-209.98 10.4,-64.47 9.37,-115.12 -3.12,-151.95 -37.48,0 -85.35,35.91 -143.64,107.74 -58.28,71.84 -116.57,163.01 -174.86,273.52 -58.29,110.51 -115.53,231.16 -171.73,361.93 -56.21,130.77 -100.97,256.02 -134.28,375.74 -33.3,119.72 -54.12,223.79 -62.44,312.2 -8.33,88.41 6.24,143.66 43.71,165.76 29.14,18.42 74.94,12.9 137.39,-16.57 62.45,-29.47 134.27,-73.68 215.45,-132.62 81.19,-58.94 166.53,-127.08 256.05,-204.44 89.51,-77.36 173.82,-155.64 252.92,-234.84 79.1,-79.2 148.84,-154.72 209.21,-226.55 6.89,-8.21 13.56,-16.23 19.99,-24.07 35.71,-115.42 73.8,-232.64 114.28,-351.67 70.77,-208.13 146.76,-411.66 227.94,-610.58 81.19,-198.92 157.16,-377.59 227.95,-535.99 70.77,-158.4 133.22,-285.49 187.34,-381.26 54.13,-95.78 91.59,-143.67 112.41,-143.67 33.31,0 72.86,6.45 118.66,19.34 45.8,12.89 90.55,29.47 134.26,49.73 43.72,20.26 83.28,40.52 118.66,60.78 35.39,20.27 57.24,37.76 65.57,52.5 -24.98,22.1 -60.36,71.83 -106.16,149.19 -45.8,77.36 -96.8,174.06 -153,290.09 -56.21,116.04 -114.5,247.74 -174.86,395.09 -60.37,147.35 -121.78,300.22 -184.23,458.62 95.76,-147.35 194.63,-270.75 296.64,-370.21 102,-99.46 188.38,-149.19 259.17,-149.19 16.65,0 42.67,14.73 78.06,44.2 35.38,29.47 72.86,67.22 112.41,113.27 39.55,46.05 74.94,96.7 106.17,151.96 31.21,55.25 48.91,106.82 53.08,154.71 4.16,66.31 -15.62,145.51 -59.33,237.6 -43.72,92.09 -103.05,183.27 -177.98,273.52 -74.95,90.25 -160.3,174.98 -256.05,254.18 -95.76,79.2 -191.51,140.9 -287.27,185.11 20.81,55.25 56.2,121.56 106.17,198.92 49.95,77.36 112.41,154.72 187.34,232.07 66.61,-62.62 135.31,-136.29 206.09,-221.02 70.77,-84.72 139.47,-170.38 206.08,-256.94 10.74,-13.95 21.26,-27.78 31.56,-41.5 10.68,-46.79 23.05,-94.66 37.14,-143.61 58.28,-202.61 131.14,-391.39 218.57,-566.37 87.43,-174.98 184.23,-321.41 290.4,-439.29 106.16,-117.87 207.12,-176.81 302.87,-176.81 16.66,0 55.17,14.73 115.54,44.2 60.36,29.47 123.86,67.22 190.48,113.27 66.6,46.05 126.98,96.7 181.1,151.96 54.12,55.25 83.26,106.82 87.42,154.71 8.33,95.78 -16.65,201.69 -74.93,317.73 -58.29,116.03 -132.18,215.49 -221.7,298.38 -89.51,82.88 -188.39,136.3 -296.63,160.24 -108.25,23.94 -206.1,-8.29 -293.53,-96.7 -33.3,88.41 -62.44,174.98 -87.42,259.71 -24.99,84.72 -43.72,161.16 -56.21,229.3 -12.48,68.15 -16.65,127.1 -12.48,176.83 4.16,49.73 18.72,81.96 43.7,96.69 29.15,18.42 74.95,12.9 137.4,-16.57 62.44,-29.47 134.26,-73.68 215.45,-132.62 81.19,-58.94 166.53,-127.08 256.04,-204.44 89.52,-77.36 173.82,-155.64 252.93,-234.84 58.37,-58.45 111.65,-114.89 159.82,-169.33 8.02,-17.09 16.15,-34.33 24.4,-51.7 60.38,-127.08 120.74,-248.65 181.11,-364.68 60.37,-116.04 116.58,-222.87 168.61,-320.49 52.05,-97.62 94.72,-175.9 128.03,-234.84 -45.8,-25.78 -67.65,-69.99 -65.57,-132.61 2.08,-62.62 16.65,-127.09 43.71,-193.4 27.06,-66.31 63.49,-126.17 109.29,-179.58 45.79,-53.41 91.59,-83.81 137.39,-91.18 24.98,-3.68 57.25,1.85 96.8,16.58 39.55,14.73 79.1,34.08 118.65,58.02 39.56,23.95 77.02,48.81 112.41,74.59 35.39,25.79 63.49,47.89 84.31,66.31 -29.15,18.42 -59.33,43.29 -90.55,74.6 -31.23,31.31 -56.2,63.55 -74.94,96.7 -18.74,33.16 -28.1,67.23 -28.1,102.22 0,35 16.65,65.39 49.95,91.18 145.72,114.19 248.76,207.2 309.13,279.04 60.37,71.83 95.76,133.53 106.17,185.1 10.41,51.58 4.16,98.55 -18.74,140.91 -22.9,42.36 -44.75,91.17 -65.57,146.42 -49.96,117.88 -104.08,256.03 -162.37,414.43 -58.29,158.4 -106.16,320.48 -143.63,486.25 66.6,-69.99 137.39,-151.96 212.32,-245.89 74.94,-93.94 145.72,-187.87 212.33,-281.81 66.62,-93.93 125.95,-181.42 177.99,-262.46 52.04,-81.05 88.47,-145.51 109.29,-193.4 37.46,7.37 49.95,47.89 37.46,121.56 -12.49,73.68 -41.62,163.93 -87.43,270.76 -45.79,106.83 -102,221.03 -168.61,342.59 -66.61,121.56 -134.27,233.91 -202.96,337.06 -68.7,103.14 -135.31,188.79 -199.84,256.94 -64.54,68.15 -115.54,102.22 -153,102.22 -33.31,0 -75.98,-14.73 -128.03,-44.2 -52.04,-29.47 -100.95,-65.39 -146.75,-107.75 -45.81,-42.36 -85.35,-84.72 -118.66,-127.09 -33.31,-42.36 -49.96,-74.6 -49.96,-96.7 0,-77.36 15.61,-166.69 46.84,-267.99 31.22,-101.3 68.69,-209.05 112.41,-323.24 43.71,-114.2 91.59,-233 143.63,-356.41 52.05,-123.4 103.05,-245.89 153,-367.45zm-1348.92 -259.7c-29.14,0 -63.49,20.26 -103.04,60.78 -39.55,40.52 -81.18,93.93 -124.9,160.24 -43.72,66.31 -87.43,143.66 -131.15,232.07 -43.71,88.41 -84.31,178.66 -121.77,270.76 91.59,-22.11 169.66,-63.54 234.18,-124.32 64.54,-60.79 116.58,-128.02 156.13,-201.69 39.55,-73.68 66.61,-146.43 81.18,-218.26 14.58,-71.84 17.69,-131.69 9.37,-179.58zm-1380.14 0c-29.14,0 -75.98,29.47 -140.51,88.41 -64.54,58.94 -135.31,135.37 -212.34,229.31 -77.02,93.94 -156.12,198 -237.3,312.19 -81.19,114.2 -150.93,226.55 -209.21,337.07 104.08,-33.15 206.08,-93.94 306,-182.35 99.92,-88.41 188.39,-183.26 265.41,-284.56 77.03,-101.31 136.36,-198.93 177.99,-292.86 41.63,-93.94 58.29,-163.01 49.96,-207.21z"/>
   <path class="fil1 str0" d="M12477.4 4447.42c-24.98,18.42 -57.25,52.49 -96.8,102.22 -39.56,49.73 -79.1,106.82 -118.66,171.29 -39.55,64.47 -75.98,132.62 -109.28,204.45 -33.31,71.84 -58.29,140.9 -74.95,207.21 -24.98,0 -52.03,-9.21 -81.18,-27.63 -29.14,-18.42 -58.29,-40.52 -87.43,-66.31 -29.14,-25.78 -53.08,-52.49 -71.81,-80.11 -18.74,-27.63 -28.1,-50.66 -28.1,-69.08 0,-81.04 11.44,-159.32 34.34,-234.84 22.9,-75.52 51,-141.82 84.31,-198.92 33.3,-57.1 67.65,-102.22 103.04,-135.37 35.39,-33.15 65.57,-49.73 90.55,-49.73 33.31,0 67.66,6.44 103.04,19.33 35.39,12.9 69.74,28.56 103.05,46.98 33.31,18.41 63.49,37.75 90.55,58.01 27.06,20.26 46.84,37.76 59.33,52.5z"/>
   <path class="fil1 str0" d="M9023.91 5215.47c-8.33,69.99 -45.8,149.19 -112.41,237.61 -66.62,88.41 -149.88,175.89 -249.8,262.46 -99.92,86.57 -209.21,167.61 -327.87,243.12 -118.65,75.52 -232.1,135.38 -340.35,179.59 95.76,18.42 176.94,46.04 243.56,82.88 66.61,36.84 119.69,77.36 159.25,121.56 39.54,44.21 68.69,87.5 87.43,129.86 18.73,42.36 26.01,80.12 21.85,113.27 -8.33,84.73 -41.63,175.9 -99.92,273.52 -58.28,97.62 -130.1,194.32 -215.46,290.1 -85.34,95.77 -182.13,187.87 -290.38,276.27 -108.25,88.41 -217.54,166.7 -327.87,234.85 -110.32,68.14 -216.49,122.47 -318.49,162.99 -102,40.53 -192.56,60.79 -271.66,60.79 -16.65,0 -43.72,-7.37 -81.19,-22.11 -37.46,-14.73 -78.05,-34.07 -121.77,-58.01 -43.72,-23.94 -88.48,-52.5 -134.27,-85.65 -45.8,-33.15 -83.27,-68.15 -112.41,-104.99 108.25,0 224.82,-23.02 349.72,-69.06 124.9,-46.05 247.72,-104.99 368.45,-176.82 120.74,-71.84 234.2,-151.96 340.36,-240.37 106.17,-88.41 196.72,-174.97 271.66,-259.7 74.93,-84.73 126.98,-162.09 156.12,-232.08 29.14,-69.99 27.06,-123.41 -6.24,-160.24 -20.82,-22.1 -52.05,-38.68 -93.68,-49.73 -41.63,-11.05 -85.35,-17.49 -131.14,-19.34 -45.8,-1.84 -90.55,-0.92 -134.27,2.76 -43.71,3.68 -78.07,9.21 -103.04,16.58 -33.31,0 -65.57,-13.81 -96.8,-41.44 -31.23,-27.63 -56.21,-58.94 -74.94,-93.93 -18.74,-35 -31.23,-69.08 -37.47,-102.23 -6.25,-33.15 -1.04,-53.42 15.61,-60.78 303.93,-162.09 546.44,-306.68 727.54,-433.76 181.11,-127.09 317.46,-237.6 409.05,-331.54 91.59,-93.93 145.72,-171.29 162.37,-232.07 16.66,-60.78 14.58,-102.23 -6.24,-124.33 -37.48,-36.84 -109.29,-41.44 -215.46,-13.81 -106.16,27.63 -218.57,69.99 -337.23,127.09 -118.65,57.1 -225.86,118.79 -321.61,185.1 -95.76,66.31 -149.88,116.04 -162.37,149.2 -16.66,-11.06 -30.19,-35 -40.6,-71.84 -10.41,-36.84 -18.73,-77.36 -24.98,-121.57 -6.24,-44.2 -10.41,-89.32 -12.49,-135.37 -2.08,-46.04 -1.04,-83.81 3.13,-113.28 0,-25.78 36.43,-58.01 109.28,-96.69 72.87,-38.68 162.38,-76.44 268.54,-113.28 106.16,-36.83 220.66,-68.15 343.48,-93.93 122.81,-25.79 236.26,-38.68 340.34,-38.68 74.95,0 140.52,16.58 196.72,49.73 56.21,33.15 102,76.44 137.4,129.85 35.38,53.42 60.36,112.36 74.93,176.82 14.58,64.47 19.78,128.01 15.62,190.63z"/>
  </g>
  <g id="_1688354190752">
   <path class="fil2" d="M5285.72 10913.13l-270.66 -16.68c-221.9,0 -595.01,81.13 -595.44,297.68 -0.18,91.24 14.04,204.68 48.67,278.71 48.65,104.01 83.85,96.38 179.1,155.95 -677.85,277.26 -905.36,430.07 -1324.26,1031.13 -155.36,222.93 -162.36,65.29 -284.76,504.64 -90.82,325.99 -93,183.7 -240.42,548.46 -244.21,604.2 -553.21,2105.84 -283.76,2737.97 41.6,97.59 86.7,166.47 179.33,209.04 45.96,21.12 94.5,33.56 142.19,44.52l122.3 25.44c3.93,1.19 7.32,2.29 11.07,3.59l-1017.01 87.31c93.07,25.18 1475.38,131.8 1698.97,151.01l3421.31 315.28c341.46,34.87 1455.32,127.3 1698.62,174.42l-386.46 57.52c-22.2,3.07 -52.22,5.64 -73.17,9.81l-66.16 24.91c531.74,13.5 1202.56,-2.27 1746.64,-6.1 3718.23,-26.17 7458.2,-150.98 11170.94,-172.47l1605.08 -24.13c-14.09,-2.38 -38.21,-3.64 -53.12,-4.68l-307.12 -25.95c-131.73,-12.37 -268.59,-28.23 -400.29,-42.98 -265.34,-29.72 -548.25,-41.6 -811.44,-71.06l97.52 -48.78c381.99,-137.13 647.34,-334.07 899.14,-652.51 20.84,-26.36 104.15,-146.49 124.13,-157.47 32.89,-18.08 197.95,-13.36 255.92,-24.67 46.17,-368.15 70.5,-705.62 137.42,-1066.62 122.32,-659.79 315.7,-888.42 287.96,-1493.43 -17.91,-390.76 15.97,-553.42 -291.22,-755.13 -51.36,-33.72 -52.25,-26.47 -63.7,-97.6 -18.47,-114.7 -40.74,-133.23 -72.91,-219.22 -24.64,-65.82 -113.48,-1120.9 -219.82,-1293.14 -80.44,-130.29 16.08,-476.93 -431.18,-773.05 -284.16,-188.14 -598.33,-181.54 -979.12,-226.84 -83.38,-9.93 -739.58,-73.52 -788.46,-106.1 -40.12,-26.74 -115.87,-111.26 -158.34,-149.33l-955.68 -850.23c-331.93,-276.13 -675.04,-524 -1028.91,-777.05 -656.05,-469.15 -1036.82,-478.44 -1840.91,-567.49 -365.4,-40.47 -736.35,-74.6 -1105.67,-99.28 -1798.3,-120.16 -3389.75,-82.96 -5187.9,70.93 -406.12,34.76 -756.07,19.62 -1155.3,101.91 -341.77,70.45 -664.98,182.42 -939.54,331.66 -283.36,154.03 -551.22,322.62 -735.78,521.46 -44.9,48.37 -107.21,103.79 -157.4,150.43l-320.16 321.85c-91.32,84.66 -644.54,729.17 -733.1,845.49l-414.67 535.44c-37.19,49.65 -108.69,135.38 -132.47,185.43z"/>
   <path class="fil3" d="M9778.65 8081.22c114.87,69.84 151.89,58.35 221.48,161.64 78.97,117.23 59.88,148.06 112.09,272.98 65.61,-62.59 64.44,-118.57 223.35,-147.6 356.69,-65.16 2225.93,-122.26 2559.34,-123.88 1119.87,-5.44 3289.21,35.04 4401.71,206.38 363.37,55.96 704.09,323.24 997.64,541.57l645.26 505.34c238.83,190.16 817.42,707.22 1017.09,904.28 -151.38,2.39 -344.73,-30.35 -506.3,-37.37 -176.25,-7.65 -357.87,-15.68 -534.74,-22.31 -1829.61,-68.61 -3668.62,-58.91 -5498.52,4.35 -358.99,12.41 -713.85,26.55 -1070.42,41.67 -180.51,7.65 -358.81,16.46 -535.05,24.91 -109.11,5.23 -452.03,-6.4 -507.51,58.52 28.34,62.8 303.02,74.36 382.36,85.72 600.79,86.01 550.11,-8.86 619.99,315.63 28.99,134.64 69.85,246.36 100.8,364.36 245.71,-0.01 498.55,-8.59 741.85,-13.65 329.36,-6.85 357.47,43.42 484.61,275.67 187.86,343.17 325.93,672.42 481.73,1042.89 119.17,283.36 180.22,226.89 518.7,227.09 253.81,0.16 508.49,6.93 762.56,6.65 992.21,-1.09 2016.87,28.44 3010.14,26.76 192.04,-0.32 1424.77,39.37 1489.71,-11.9 57.95,-45.76 390.17,-924.13 448.92,-1076.42 34.61,-89.72 70.86,-181.44 106.86,-267.39 54.62,-130.42 104.79,-126.55 268.96,-125.98 253.86,0.89 499.23,14.71 749.98,26.35l33.33 -260.32c-279.81,-163.38 -3903.41,-221.19 -4502.49,-220.85 -1373.36,0.78 -2677.08,26.54 -4039.9,95.8 -164.31,8.35 -425.48,39.01 -575.64,29.64 -63.1,-135.87 -24.81,-307.1 -140.19,-392.57 2298.22,-185.36 5033.19,-219.18 7375.43,-120.71 331.95,13.95 708.28,49.76 1037.47,47.11 -88.29,-41.98 -256.06,-39.66 -367.45,-52.62 -225.56,-26.25 -176.99,-2.98 -301.14,-126.94l-547.02 -509.59c-39.2,-39.54 -71.75,-58.03 -114.05,-100.1l-702.95 -581.56c-280.88,-216.2 -687.16,-520.56 -993.02,-706.22 -402.48,-244.29 -850.43,-276.84 -1373.99,-338.6 -1875.2,-221.21 -3796.72,-228.73 -5683.63,-93.46 -260.58,18.68 -541.53,30.13 -797.35,64.73z"/>
   <path class="fil3" d="M8608.49 13417.14c37.99,170.42 106.14,355.25 154.32,531.19 101.65,371.16 180.85,754.62 238.32,1138.48 16.01,106.96 80.29,543.97 72.83,610.28 12.1,-269.52 0.24,-653.67 0.83,-944.5 0.25,-123.16 30.31,-178.98 103.78,-225.03 81.92,-51.35 1281.99,-295.75 1544.37,-354.3 422.97,-94.38 516.7,-122.37 496.05,-461.31 -6.1,-100.18 -5.71,-192.83 -104.69,-218.25 -157.07,-40.35 -449.19,0.93 -618.95,-21.61 2.34,0.66 611.87,-53.22 700.49,-56.64 265.32,-10.23 514.29,-3.03 778.8,3.68 -45.37,24.12 -112.71,20.88 -163.66,24.43 -289.13,20.1 -308.54,34.82 -282.41,280.15 33.38,313.49 73.23,291.31 471.43,302.83 511.97,14.81 1037.18,1.43 1550.99,7 2033.44,22.05 4136.42,43.68 6166.9,43.65 508.84,-0.01 1025.62,9.92 1538.51,9.92 252.16,0 509.47,-1.15 762.57,3.66 129.89,2.47 258.01,2.88 388,3.27 192.33,0.57 194,-8.6 341.19,-66.21 -10.43,180.12 -70.65,359.06 -98.49,540.08 -27.21,176.99 -38.31,372.84 -63.76,537.8l212.37 -804.48c46.29,-177.56 62.77,-255.39 52.43,-458.18 -7.85,-154.06 -4.88,-347.63 -34.33,-489.71l-1787.41 -14.27c-591.7,-18.05 -1214.69,-14.52 -1806.08,-14.43 -1199.4,0.21 -2399.38,-31.18 -3598.78,-30.06 -1201.57,1.12 -2397.4,-28.88 -3598.79,-30.2 -293.39,-0.32 -617.24,-14.5 -907.16,8.87l-2102.9 165.62c-184.9,14.16 -247.17,36.61 -406.77,-21.73z"/>
   <path class="fil3" d="M7203.81 8938.32c92.92,-41.22 177.36,-111.31 287.87,-163.53 314.7,-148.7 684.04,-243.25 1038.35,-286.55 178.83,-21.86 688.71,-103.08 742.69,67.04 21.89,69.01 -423.74,2014.91 -458.96,2168.92 -22.5,98.37 -184.74,222.13 -297.95,585.69 -71.88,230.83 -107.71,489.8 -155.32,726.45 108.88,-118.82 4.42,-271.38 159.57,-307.35 26.85,-6.22 50.6,-9.6 78.09,-15.24 53.95,-11.05 109.42,-23.26 166.65,-34.79 108.59,-21.88 216.49,-43.09 321.72,-65.57 386.88,-82.64 1635.87,-322.15 1988.73,-363.28 -37,204.69 -86.49,461.26 -53.46,679.83l12.7 47.79c9.32,-511.75 139.8,-873.53 543.02,-1151.63 71.54,-49.34 275.04,-163.58 372.43,-172.36 -238.94,-87.87 -1236.82,-134.67 -1368.77,-169.6 -143.65,-38.02 -179.86,-149.38 -228.56,-292.98 -90.04,-265.44 -150.28,-537 -198.44,-830.7 -25.26,-154.07 -44.21,-310.04 -56.12,-467.21 -9.9,-130.67 13.65,-372.25 -53.3,-466.56 -114.97,183.26 62.86,1049.68 108.15,1295.07 52.7,285.46 64.83,688.26 302.47,808.24 56.31,28.43 236.84,81.22 290.88,65.74 -180.56,24.62 -369,0.08 -571.02,33.96 -266.86,44.77 -695.61,158.41 -978.63,223.89 -150.09,34.73 -343.82,93.73 -489.11,113.16 85.42,-195.88 148.19,-167 447.59,-234.43 194.93,-43.91 391.79,-70.02 484.83,-198 102.04,-140.36 87.25,-387.11 91.44,-583.85 4.9,-230.67 9.81,-458.14 19.7,-686.13 25.82,59.22 19.92,168.21 25.06,244.03l27.51 250.54c5.65,-343.62 -10.43,-704.39 -15.87,-1052.97 -5.83,-373.33 -271.5,-423.35 -630.32,-431.12 208.95,-67.82 652.42,70.42 776.89,-0.37 16.06,-366.76 -1278.56,-95.18 -1518.71,-21.28 -351.14,108.06 -654.01,261.82 -941.55,462.91l-251.28 193.1c-19.25,24.32 0.11,-8.66 -18.97,29.14z"/>
   <path class="fil3" d="M10335.07 9807.51c-11.64,-63.49 -124.84,-1033.63 -89.69,-1125.53 28.16,-73.62 84.13,-56.31 116.51,82.6 16.17,69.32 32.11,135.07 48.45,204.69 54.4,231.68 294.67,1097.73 286.49,1205.38l-73.49 53.08 1117.48 -58.56c-157.51,-20.35 -488.76,-0.62 -597.92,-85.9 -51.53,-40.26 -595.44,-1504.93 -587.89,-1524.68 84.76,-94.56 284.06,-83.28 426.73,-92.38 169.11,-10.79 339.43,-21.07 508.39,-29.2 1050.27,-50.56 2093.84,-57.67 3144,-25.37 303.63,9.33 714.46,8.52 1002.03,53.65 441.14,69.22 642.04,359.43 925.63,680.9 247.46,280.52 377.18,449.52 598.37,739.23 236.02,309.13 -74.09,204.65 -229.01,264.57 474.83,11.11 945.83,13.93 1422.14,13.9 458.35,-0.02 901.97,97.85 1337,103.57 -31.76,-49.98 -357.8,-321 -428.52,-382.83 -71.52,-62.53 -147.24,-122.27 -219.03,-183.07 -80.05,-67.79 -144.61,-125.52 -226.06,-188.57 -231.84,-179.45 -442.44,-357.87 -685.93,-531.07 -672.92,-478.66 -654.46,-434.65 -1533.27,-513.1 -1790.75,-159.88 -3726.74,-175.98 -5522.51,-68.69 -177.99,10.64 -601.11,22.84 -750.86,62.98 -122.8,32.91 -146.94,110.9 -145.16,255.79 1.55,125.21 15.53,260.67 30.3,382.55 15.22,125.62 32.8,244.58 54.1,363.96 19.38,108.61 61.79,250.97 71.72,342.1z"/>
   <path class="fil3" d="M4561.13 15560.62l-10.71 -149.23 1797.37 -90.32c-10.57,-77.52 -172.16,-650.59 -195.57,-686.63 -132.16,-4.97 -305.28,17.14 -441.63,25.43 -99.77,6.08 -1266.04,91.29 -1310.49,81.06 -30.57,-7.04 -15.94,-1.39 -35.77,-14.91l-33.15 -344.3 1780.08 -139.26 -7.01 -284.22 -1768.66 173.3c-37.34,-38.08 -47.15,-94.86 -48.08,-168.09 54.78,-28.55 819.59,-94.41 879.31,-100.77 296.19,-31.56 591.15,-67.63 886.77,-93.18l12.29 -100.3 -1767.72 199.42c17.18,-100.52 55.6,-111.57 154.16,-121.43l1594.5 -169.54c85.16,-17.33 61.62,-30.45 66.91,-203.38 1.92,-62.73 5.65,-119.42 7.64,-182.57l-1760.19 246.99c-5.02,-112.65 35.79,-667.53 82.85,-726.83 45.35,-50.46 1733.73,-449.4 1785.84,-463.25 22.39,-138.13 58.53,-290.67 105.45,-416.56 22.49,-60.36 57.56,-130.41 87.58,-180.15 33.82,-56.04 81.88,-117.53 103.7,-169.37l-1735.39 405.61c37.62,-88.89 68.2,-114.81 175.01,-140.43l1335.02 -324.4c89.98,-20.63 175.28,-43.02 269.49,-65.53 75.42,-18.02 66.78,-7.38 106.28,-53.76 31.83,-37.38 61.25,-57.08 78.44,-95.72 -218.5,37.13 -483.43,122.81 -706.12,177.46 -236.68,58.07 -479.72,119.24 -717.19,178.72 -380.21,95.22 -379.59,36.95 -580.48,315.95 -336.57,467.47 -372.18,755.92 -417.21,1374.12 -10.6,145.57 -16.45,281.09 -17.46,429.06 -0.82,119.28 -32.45,58.59 -57.43,165.77 -40.1,172.05 27.57,214.86 31.98,394.79 15.18,620.05 81.32,687.42 235.05,1224.33l19.64 62.19c12.49,30 7.12,17.43 14.9,29.93z"/>
   <path class="fil3" d="M5774.48 10607.47c2.82,-2.22 6.76,-9.64 7.99,-7.23l779.18 -869.59c94.99,-100.05 180.74,-186.56 277.9,-284.08l285.79 -262.77c132.75,-103.29 140.79,-134.56 327.2,-234.67 210.29,-112.94 568.28,-248.39 842.31,-284.4l-470.44 736.78c-154.24,252.74 -288.72,509.89 -434.3,783.58 -143.98,270.73 -253.27,535.25 -382.96,820.82 -25.42,55.95 -21.92,40.99 -88.45,58.42l-355.25 99.81c-90.48,26.01 -425.04,135.68 -470.94,128.21 76.45,-0.75 1220.45,-302.28 1327.42,-328.75 446.36,-110.42 889.99,-236.27 1339.55,-332.88l181.91 -821.34c61.44,-275.76 120.15,-549.62 180.12,-822.82 104.51,-476.13 205.61,-496.58 -375.3,-446.26 -700.73,60.69 -1304.24,233.48 -1792.5,712.98 -143.14,140.57 -508.27,499.88 -617.66,639.65l-230.28 278.21c-62.19,75.1 -294.72,365.83 -331.29,436.33z"/>
   <path class="fil3" d="M7920.26 12676.09c-372.18,123.37 -770,1152.35 -915.48,1645.15 -95.99,325.19 -181.23,689.07 -221.66,1047.73 -27.92,247.65 -87.6,1085.91 277.72,948.44 212,-79.77 428.96,-479.2 552.24,-719.15 271.46,-528.41 506.68,-1372.42 576.05,-1981.1 27.46,-240.99 87.43,-1059.17 -268.87,-941.07z"/>
   <path class="fil3" d="M6436.73 15625.83l14.94 -67.64 222.56 -14.17 12.36 -172.35c-73.35,-0.13 -208.88,32.35 -263.82,-3.49l-4.2 -40.07c66.29,-35.73 198.47,-17.94 279.17,-27.71 67.18,-769.13 358.02,-712.87 -474.27,-675.12 -15.56,-106.52 -48.68,-280.7 -38.31,-387.86 189.45,-23.14 393.64,-31.95 582.54,-46.48 221.46,-17.04 233.28,-135.2 295.03,-334.41 -156.74,12.28 -788.52,90.84 -883.07,81.06 -27.66,-66.41 -38.07,-97.08 -41.08,-178.01l843.3 -88.74c150.93,-15.59 170.32,17.35 204.77,-129.56l-1041.19 115.9c29.05,-124.51 84.93,-99.44 217.89,-113.42 94.09,-9.9 191.64,-20.65 288.75,-31.01 193.08,-20.61 385.46,-36.55 579.05,-62.44 31.43,-49.75 190.33,-346.48 170.55,-385.78 -44.68,-88.74 -462.94,5.78 -598.67,25.78 -172.01,25.36 -444.24,80.61 -607.69,83.19 2.31,-184.54 53.81,-797.28 111.17,-942.16l2063.19 -474.51c18.59,-12.14 72.74,-316.24 97.56,-401.03 41.38,-141.34 90.86,-239.98 144.8,-361.3l-1965.28 457.06c16.36,-40.74 42.51,-60.37 80.34,-97.01 77.15,-74.7 274.76,-103.04 413.22,-135.73l1453.6 -352.2c117.16,-28.5 170.21,-39.76 190.1,-163.98 -135.49,15.26 -1408.52,347.97 -1582.22,390.56 -421.24,103.28 -364.16,44.07 -615.02,375.06 -168.75,222.64 -235.61,364.94 -307.87,695.72 -117.26,536.71 -102.86,858.82 -132.8,1357.45 -8.91,148.36 -99.22,37.57 -13.07,407.31 22.2,95.25 13.17,348.36 26.11,471.71 47.86,456.08 220.44,726.19 277.56,1225.38z"/>
   <path class="fil3" d="M11018.64 12459.1c-39.24,27.41 -34.18,64.92 4.26,138.27 25.65,48.95 56.54,76.33 94.75,106.45 219.64,173.12 844.48,25.66 1097.02,93.78 -112.01,57.73 -693.29,-12.81 -732.04,99.93 -3.38,133.15 108.54,102.82 234.99,102.59 1729.21,-3.1 3487.03,31.04 5217.57,30.2 928.38,-0.44 1853.3,14.01 2782.83,13.22 451.62,-0.38 924.27,-1.81 1377.84,9.6 227.54,5.72 467.45,4.08 695.68,3.98 115.94,-0.05 231.89,-0.01 347.84,-0.1 95,-0.07 280.31,33.86 348.1,-17.36 41.18,-72.01 -13.31,-225.17 -54.95,-280.11 -39.53,-52.17 -45.63,-30.85 -109.76,-20.81l-892.45 -4.52c-462.77,-14.7 -965.86,-17.96 -1428.81,-11.08 -25.3,40.1 -48.91,77.79 -68.94,113.7l251.6 21.06c42.1,9.94 17.11,3.22 31.5,11.2 -270.82,-10.94 -572.07,-6.08 -845.62,-5.89 -280.7,0.19 -560.19,-7.04 -842.84,-6.83 -554.88,0.42 -1136.18,2.77 -1685.67,-15.03 -552.77,-17.91 -1130.55,-15.39 -1685.68,-15.01 -564.42,0.38 -1132.76,0.62 -1696.59,-6.91l739.93 -30.59c-1.98,-2.74 -5.42,-11.34 -6.55,-9.08 -4.72,9.41 -52.09,-110.35 -93.68,-120.53 -101.7,-24.91 -2712.16,52.83 -2878.99,8.68 -192.25,-50.87 -148.08,-198.14 -201.34,-208.81z"/>
   <path class="fil2" d="M7066.35 11016.49l813.6 -221.36c266.6,-74.49 559.27,-157.75 829.27,-213.1 68.36,-373.64 224.29,-1026.69 313.11,-1427.42 26.38,-118.98 51.51,-231.36 78.84,-350.02 46.75,-203.04 191.84,-276.05 -520.76,-186.89 -228.05,28.54 -182.64,3.46 -286.89,156.08 -423.09,619.47 -953.28,1529.78 -1227.17,2242.71z"/>
   <path class="fil2" d="M7300.14 13655.8c63.42,-73.35 148.43,-309.3 300.16,-505.12 65.19,-84.13 318.38,-414.35 457.77,-203.98 -167.74,106.83 -149.83,86.22 -276.77,251.17 -360.63,468.6 -655.53,1342.78 -754.68,1933.83 -36.93,220.15 -72.49,514.05 -24.98,738.02 29.85,140.69 62.1,132.19 89.21,194.14 -49.93,33.39 -107.86,40.62 -163.04,0.97 -38.12,-27.39 -47.27,-50.85 -68.45,-92.39 -1.49,-2.92 -3.05,-6.41 -4.58,-9.31l-21.73 -36.88c16.5,363.51 237.59,361.75 405.58,153.55 364.12,-451.26 615.05,-1193.29 752.18,-1776.72 75.6,-321.64 239.08,-1177.2 58.32,-1460.91 -208.26,-326.87 -699.63,595.26 -748.99,813.63z"/>
   <path class="fil3" d="M3263.38 13396.95c-301.36,79.39 -549.64,929.53 -630.71,1327.48 -57.7,283.26 -97.04,572.76 -102.58,871.07 -16.54,890.2 346.26,948.78 669.88,138.13 186.32,-466.7 323.58,-1123.81 323.51,-1636.39 -0.03,-206.64 -17.7,-764.14 -260.1,-700.29z"/>
   <path class="fil3" d="M9951.57 16558.18c126.71,-0.7 1254.58,-213.95 1471.45,-253.95 313.82,-57.88 499.61,-32.57 557.81,-298.17 50.31,-229.63 64.57,-529.88 127.24,-742.59 79.86,-271.12 312.22,-241.13 612.93,-239.96l7732.7 40.33c275.89,-0.01 566.84,-3.91 842.84,4.3 138.8,4.12 293.39,-5.87 428.43,4.82 111.18,8.81 273.54,72.6 284.78,138.84 -0.04,-89.33 -118.37,-185.28 -193.71,-216.33 -153.22,-63.13 -1085,-38.82 -1282.07,-38.82 -578.24,0.01 -1162.81,-1.36 -1739.19,-13.05 -577.3,-11.7 -1168.67,7.53 -1742.03,-12.47 -579.75,-20.21 -1175.15,9.03 -1754.51,-12.9 -859.94,-32.54 -1746.2,4.01 -2604,-17.68 -290.35,-7.34 -590.92,-44.1 -689.05,193.42 -54.61,132.18 -103.19,565.17 -130.35,739.77 -53.88,346.34 -84.26,296.43 -500.45,382.4 -177.78,36.72 -1337.09,297.34 -1422.82,342.04z"/>
   <path class="fil2" d="M16341.46 8527.9c-15.14,69.6 348.94,461.83 392.99,511.94 69.21,78.72 142.99,176.54 221.42,247.16 81.7,73.55 134.95,158.14 227.59,240.6 150.63,134.06 304.75,346.32 472.88,463.76 271.67,189.76 1108.89,164.92 697.77,-216.07 -92.52,-85.73 -146.28,-156.84 -226.8,-241.64 -77.39,-81.49 -153.07,-155.2 -233.94,-234.15 -41.08,-40.1 -76.25,-70.22 -120.23,-107.33 -125.69,-106.04 -235.83,-215.8 -386.3,-322.73 -89.29,-63.45 -180.88,-125.69 -290,-177.87 -123.79,-59.19 -609.49,-233.38 -755.38,-163.67z"/>
   <path class="fil2" d="M2857.94 14086.64c2.42,-2.72 5.6,-10.84 6.58,-8.69 0.97,2.13 5.04,-6.68 6.34,-8.72 15.21,-23.95 4.36,-5.18 16.07,-26.9 94.65,-175.69 238.88,-569.47 484.58,-444.08 -26.34,75.04 -154.32,53.83 -341.32,480.61 -173.92,396.89 -294.53,877.49 -325.44,1319.05 -9.27,132.55 -10.42,273.29 6.64,401.42 7.82,58.82 17.5,111.76 36.02,163.94 25.09,70.71 55.94,89.53 75.95,139.2 -136.75,30.77 -161.45,-30.89 -213.16,-121.08 24.08,209.6 151.23,324.81 301.74,159.87 255.29,-279.77 432.64,-1010.38 492.78,-1392.92 47.74,-303.66 104.85,-863.52 -5.71,-1135.19 -94.85,-233.07 -243.05,-105.22 -336.45,30.07 -55.58,80.52 -184.34,329.36 -204.62,443.42z"/>
   <path class="fil3" d="M7604.91 16066.64c150.58,-97.38 460.34,-748.74 509.06,-894.78 -2.41,111.99 -66.2,242.54 -41.77,348.88 64.77,74.38 193.74,49 300.72,48.01l225.77 -838.57c8.16,176.34 -118.95,633.56 -150.79,831.43 219.76,-3.19 358.16,-23.8 485.92,101.06 -2.81,-280.48 -251.97,-1760.95 -357.18,-1915.94 -7.46,455.85 -161.96,951.67 -170.97,1134.91 19.34,-266.26 171.23,-1180.99 107.46,-1392.63 -33.65,-111.68 -85.89,-306.21 -138.95,-387.22 -20.3,871.64 -272.1,2015.61 -680.56,2804.25 -29.25,56.46 -65.69,102.01 -88.71,160.6z"/>
   <path class="fil3" d="M3228.07 13061.39c49.37,-86.33 182.69,-169.01 280.59,-39.95 283.32,373.49 451.79,1686.48 521.88,2208.54l37.04 296.04c3.9,35.6 5.27,70.77 24.37,94.28 55.66,-25.26 29,-72.36 19.1,-151.9l-68.39 -573.38c-31.07,-253.57 -62.87,-503.34 -96.81,-757.71 -33.5,-250.99 -70.68,-501.19 -109.82,-748.06 -34.09,-215.09 -62.6,-531.6 -300,-541.51 245.59,-45.21 0.92,94.21 412.29,-18.6 130.51,-35.79 286.41,-83.16 414.34,-106.57 67.01,-477.11 146.29,-486.79 321.08,-805.22 -306.61,54.42 -708.06,225.81 -891.4,408.67 -204.99,204.46 -369.63,471.47 -441.32,535.58 -57.74,51.65 -112.76,105.66 -122.95,199.79z"/>
   <path class="fil3" d="M7766.86 9793.81c133.42,-67.91 222.65,-86.94 405.23,-103.66 -37.9,113.44 -114.26,250.56 -166.28,360.43 -54.66,115.47 -105.01,245.04 -160.53,347.1l436.3 -832.89c44.31,-94.55 92.57,-205.06 141.97,-293.53l-143.24 396.41 494.83 -61.15c75.55,5.53 48.41,66.25 46.87,124.34 36.43,-162.39 91.62,-357.73 133.55,-536.56 35.04,-149.51 113.24,-414.5 125.63,-553.13 -170.23,-16.92 -405.24,16.59 -572.47,40.04 -138.51,19.42 -185.31,151.41 -298.18,316.59 -80.26,117.45 -151.19,251.56 -231.01,384.33 -52.16,86.76 -182.16,317.6 -212.67,411.68z"/>
   <path class="fil3" d="M11111.61 11874.18l-8.97 346.39c96.03,-49.86 178.94,-30.47 293.66,-24.24 112.63,6.13 237.17,-25.81 331.29,2.07 1.46,-77.44 11.64,-180.65 74.86,-233.51 -43.16,170.74 -37.78,134.41 -24.33,308.49 4.4,-124.45 17,-235.65 80.53,-309.66 55.85,-65.06 143.26,-135.26 269.14,-121.26 309.87,34.46 264.24,394.35 310.85,495.7 22.42,-496.44 413.46,-623.82 676.67,-361.16 53.22,53.11 91.76,137.01 104.69,216.14 2.65,16.22 3.13,31.14 5.73,46.41l11.82 48.57c0.97,3.3 2.43,8.2 4.26,12.05 8.99,-164.9 -6.26,-183.55 -50.73,-316.45 65.76,68.45 88.38,168.67 98.64,286.76 143.82,-39.79 176.61,-27.19 327.45,-22.51 198.67,6.17 175.75,1.28 180.49,-151.67 21.24,66.25 190.32,335.31 215.85,402.67 -19.3,-130.12 -267.65,-600.99 -329.27,-755.96 -444.32,1.91 -894.52,2.3 -1337.83,13.66 -277.3,7.12 -708.41,-10.28 -968.69,35.7 -116.03,20.5 -170.11,48.63 -266.11,81.81z"/>
   <path class="fil2" d="M15534.39 12611.4c67.55,-144.05 88.53,-1065.32 190.14,-1142.73 57.4,-43.74 1688.64,-10.02 1986.6,-10.31 761.77,-0.76 628.69,-104.22 746.96,594.75 17.26,102.03 75.51,510.17 105.49,570.52 30.27,-143.69 10.43,-537.41 10.43,-707.07 0,-204.06 53.26,-548.85 -101.71,-627.45 -93.17,-47.25 -1216.4,-21.42 -1416.71,-21.42 -197.95,0 -1328.8,-23.12 -1419.89,18.8 -162.42,74.75 -105.29,409.29 -105.29,603.32 0,213.63 -17.78,519.01 3.98,721.59z"/>
   <path class="fil3" d="M6371.46 10027.7c117.2,-78.04 124.56,-90.21 301.43,-120.05 118.52,-20 251.8,-45.32 369.29,-58.34 -34.79,81.48 -87.9,160.33 -133.59,241.55 -40.31,71.66 -116.41,185.78 -143.85,263.11l39.55 -47.12c11.11,-16.09 24.28,-36.55 36.76,-55.85l464.02 -759.64 -150.53 336.16c86.18,-10.33 230.36,-47.07 308.76,-39.04 18.89,44.49 -12.12,-27.91 8.14,29.88 0.98,2.78 2.33,7.15 3.45,10.12l13.65 29.91c29.47,-81.32 431.03,-718.07 506.23,-835.44 52.42,-81.81 146.14,-198.56 183.3,-280.63 -395.85,80.9 -823,292.04 -1042.35,505.32 -68.19,66.3 -130.83,119.17 -199.48,188.6l-564.78 591.46z"/>
   <path class="fil3" d="M11126.46 11684.87l111.47 -87.11c149.06,-67.14 343.73,-90.24 509.49,-82.23 -73.55,33.6 -97.96,-8.33 -112.37,70.56 275.62,55.81 1403.79,-43.17 1795.81,-34.94 115.67,2.43 119.76,51.6 190.84,86.67 -16.83,-56.13 -103.68,-213.44 -139.15,-255.3 -82.88,-97.81 -166.49,-89.16 -320.07,-88.16 -294.3,1.92 -1333.21,12.95 -1560.58,52.23 -220.36,38.07 -452.92,130.97 -475.44,338.28z"/>
   <path class="fil3" d="M20086.6 12578.56c6.22,-21.63 161.8,-370.55 178.96,-392.28 6.65,237.76 93.13,40.56 269.56,121.98 15.45,-128.59 73.92,-292.53 163.43,-326.74 -79.35,155.6 -110.33,167.99 -93.28,391.27 46.83,-110.81 -4.05,-182.1 103.06,-308.58 167.19,-197.44 413,-181.23 556.99,4.1 97.8,125.88 57.22,208.93 108.45,321.74 6.97,-175.32 36.49,-452 286.47,-469.35 217.99,-15.14 333.39,196.85 324.01,416.84 21.87,-189.65 11,-208.03 -56.57,-348.95 98.7,100.65 89.97,119.34 120.77,285.21 51.13,-40.72 66.54,-8.94 143.91,-4.04 64.91,4.1 123.72,-12.19 191.39,-11.4 -6.27,-100.34 -3.74,-251.02 -41.29,-330.99 -94.79,-117.1 -1630.61,-96.68 -1982.49,-100.62 -48.82,118.15 -97.89,249.66 -144.52,373.42 -45.76,121.45 -86.23,273.81 -128.85,378.39z"/>
   <path class="fil3" d="M20447.56 15966.49c11.76,-294.09 99.31,-256.98 506.07,-277.59 -119.53,547.81 251.6,612.69 455.14,272.99 147.94,-246.89 127.06,-626.37 -125.05,-608.18 -98.34,7.09 -148.92,72.94 -204.33,106.08 26.61,-53.81 49.23,-63.69 82.05,-101.05 -101.25,-1.33 -214.76,6.68 -320.19,11.33 -275.99,12.17 -421.54,320.69 -393.69,596.42z"/>
   <path class="fil3" d="M3366.74 15626.2c2.58,-2.59 6.29,-10.34 7.41,-8.07l20.05 -24.52c62.63,-89.58 100.4,-256.43 137.17,-312.25 -6.02,96.29 -50.85,220.1 -41.5,302.56 67.07,38.15 134.77,30.3 226.59,26.65 19.21,-119.2 56.24,-233.58 75.09,-346.85l-38.45 345.31 231.76 -3.29 -167.15 -1142.1 -78.48 528.99c-24.05,-441.97 140.57,-379.62 -20.12,-1030.63 -12.16,-49.26 -25.81,-100.76 -39.41,-148.19l-53 -140.46c-1.42,-2.37 -4.09,-6.53 -6.45,-9.56 6.71,554.98 8.56,983.39 -123.51,1523.8 -37.24,152.39 -99.74,302.93 -130,438.61z"/>
   <path class="fil3" d="M12666.65 15477.94c29.61,-66.33 36.76,-65.63 76.71,-109.34 -372.07,-34.16 -533.3,237.99 -498.11,573.02 50.06,-167.96 -63.8,-215.56 321.29,-240.5 -75.92,515.98 341.24,615.8 527.96,240.58 71.75,-144.18 89.29,-358.24 -12.41,-492.51 -39.47,-52.1 -106.69,-108.45 -212.42,-94.15 -103.18,13.96 -147.24,83.87 -203.02,122.9z"/>
   <path class="fil3" d="M13094.75 15371.61c56.99,118.56 101.72,137.62 107.5,320.91 27.37,-0.79 57.61,-4.23 82.4,10.12 -93.25,492.4 338.08,628.13 528.93,236.38 121.1,-248.57 40.34,-640.78 -245.8,-580.34 -92.77,19.59 -145.25,83.44 -190.45,128.92 27.85,-70.44 62.63,-81.64 93.8,-129.7l-376.38 13.71z"/>
   <path class="fil3" d="M20401.71 11732.57c129.08,-101.39 26.36,-97.07 319.05,-84.82 207.08,8.67 1199.35,63.81 1268.63,17.66 -13.73,-41 -3.53,-16.97 -21.24,-32.41 -2.18,-1.89 -5.54,-4.22 -8,-6.01 -2.56,-1.86 -6.25,-3.68 -8.95,-5.36l-29.97 -14.24c216.94,-6.49 255.79,38.85 398.62,82 -116.44,-333.74 -617.3,-273.06 -996.68,-283.36 -200.95,-5.46 -412.43,-14.36 -615.9,-14.54 -190,-0.17 -242.3,133.3 -305.56,341.08z"/>
   <path class="fil3" d="M21474.26 15371.97c60.64,115.26 73.01,151.16 73.46,303.92 40.78,27.1 39.59,8.62 72.89,26.75 -132.37,513.27 257.53,606.26 462.61,251.57 71.1,-122.97 127.51,-334.45 53.52,-489.85 -116.54,-244.75 -361.13,-20.62 -388.64,-4.36 28.67,-57.67 48.19,-61.76 82.42,-101.48l-356.26 13.45z"/>
   <path class="fil3" d="M7163.42 16004.22c73.96,-75.18 123.69,-133.32 187.25,-240.04 49.98,-83.92 37.55,-70.16 25.79,-173.03 -8.34,-72.86 -8.58,-149.81 -6.38,-223.18 11.78,-393.08 105.4,-534.96 128.06,-730.04 -123.22,-24.53 -106.19,119 -206.3,-1.21 -56.58,91.12 -58.48,245.24 -108.86,344.91 8.12,-270.31 246.96,-921.45 264.48,-1055.01 -173.88,319.47 -374.42,1141.18 -396.02,1548.87 -10.6,199.96 -6.15,379.93 111.98,528.73z"/>
   <path class="fil3" d="M4591.09 15476.46c-52.71,198.8 200.29,151.07 343.72,144.74 467.12,-20.61 1008.79,-33.78 1456.91,-64.93 -11.8,-95.46 -14.44,-126.97 -38.83,-167.72l-1761.8 87.91z"/>
   <path class="fil3" d="M4569.69 15873.52c5.21,46.89 6.86,88.75 30.64,129.16 569.07,14.57 1294.55,-25.8 1847.14,-6.25 96.4,3.41 98.42,27.39 134.06,79.94l-4.13 -208.82 -2007.71 5.97z"/>
   <path class="fil3" d="M2874.52 16042.03c39.19,-24.81 13.01,-4.22 43.41,-42.16 8.41,-10.49 22.62,-29.85 34.1,-45.96 160.72,-225.45 2.14,-216.26 52.8,-709.48 8.25,-80.33 42.4,-223.11 39.41,-286.05 -98.33,-7.32 -83.53,94.68 -163.59,1.15l-57.08 263.14c-0.08,-264.01 101.63,-522.56 120.46,-765.79 -30.83,40.85 -44.27,118.39 -58.29,173 -49.5,192.73 -88.89,395.7 -112.72,593.03 -18.07,149.55 -29.31,300.5 -19.49,453.51 4.5,70.05 13.76,141.59 33.02,208.15l52.43 120.99c21.3,28.37 9.18,15.73 35.54,36.47z"/>
   <path class="fil3" d="M7978.82 12519.95c365.45,-94.57 498.78,362.76 581.91,626.95 22.19,70.53 0.73,40.13 39.73,55.37 24.07,-36.42 -5.99,-103.61 -24.29,-164.39 -17.99,-59.75 -39.23,-112.11 -56.66,-171.45 73.48,-0.1 212.24,5.77 252.74,-68.21l32.14 -86.66c17.54,55.47 164.11,290.31 177.13,363.42 -8.26,-201.58 -370.97,-996.55 -934.53,-615.15l-46.87 35.28c-19.53,19.05 -5.16,0 -21.3,24.84z"/>
   <path class="fil2" d="M13709.38 16022.57c-58.82,35.85 -103.8,66.61 -192.87,48.01 188.2,-102.96 269.64,-302.44 205.21,-486.11 -30.04,-85.66 -63.24,-90.42 -119.32,-136.54 89.7,-13.52 127.93,9.32 173.29,49.06 -96.96,-190.18 -396.67,-97.07 -460.56,224.95 -68.11,343.31 223.39,532.29 394.25,300.63z"/>
   <path class="fil2" d="M12977.13 16035.43c-68.48,32.88 -84.44,44.2 -177.69,39.87 51.54,-48.66 167.3,-67 214.67,-280.76 37.92,-171.14 -20.53,-275.01 -129.27,-343.89 75.75,-18.82 103.01,1.27 158.87,28.39 -85.67,-161.87 -379.52,-79.79 -446.14,247.9 -25.54,125.64 4.28,257.5 74.73,332.04 90.62,95.88 244.14,71.09 304.83,-23.55z"/>
   <path class="fil2" d="M21285.31 16046.55c-61.82,20.69 -81.03,39.09 -156.04,24.24 103.27,-47.94 179.91,-132.75 220.69,-247.82 85.22,-240.48 -7.76,-301.8 -75.03,-380.02 65.43,-0.94 102.01,16.24 145.05,36.77 -61.95,-115.05 -171.4,-92.52 -267.24,-28.09 -286.75,192.75 -241.41,808.25 70.78,646.63l61.79 -51.71z"/>
   <path class="fil2" d="M21953.91 16046.23c-59.15,21.13 -82.91,38.72 -156.24,24.4 176.85,-76.56 376.95,-403.63 154.86,-619.26 -2.27,-2.2 -6.18,-5.62 -8.89,-8.79 65.34,-0.53 102.19,16.79 145.63,37.35 -173.22,-308.74 -617.24,280.65 -416.75,569.37 66.62,95.94 187.24,87.82 259.78,20.68l21.61 -23.75z"/>
   <path class="fil3" d="M4476.83 15418.61c-26.75,-108.32 -63.91,-215.6 -97.95,-324.03 -27,-85.97 -60.24,-281.19 -86.25,-340.65 -181.56,-7.57 -197.13,245.01 -164.8,406.06 33.64,167.56 155.53,263.31 349,258.62z"/>
   <path class="fil3" d="M11467.1 11298.28c139.86,-13.56 253.07,-45.4 410.94,-50.2 157.43,-4.78 319.77,-6.87 473.82,-10.25l-68.96 -224.28c-237.88,3.83 -686.15,168.32 -815.8,284.73z"/>
   <path class="fil3" d="M21527.17 11351.95c259.42,12.97 378.42,18.37 623.49,72.02 -57.04,-73.54 -152.2,-132.7 -245.07,-183.41 -48.39,-26.41 -93.51,-49.31 -142.81,-71.15 -51.42,-22.78 -120.33,-41.02 -161.45,-68.93 25.31,-124.14 47.11,-197.79 37.44,-333.67 -34.09,167.13 -121.19,408.24 -111.6,585.14z"/>
   <path class="fil3" d="M3958.22 13862.72c2.76,-2.26 6.43,-9.87 7.64,-7.51 1.5,2.95 9.65,-9.68 14.88,-14.86 136.37,-134.85 294.65,21.92 302.45,-157.21l5.71 -227.49c-341.05,-8.87 -355.68,117.91 -330.68,407.07z"/>
  </g>
 </g>
</svg>
